<svg xmlns="http://www.w3.org/2000/svg" aria-hidden="true" style="position:absolute;width:0;height:0;overflow:hidden">
  <defs>
    <symbol id="icon-btn_main" viewBox="0 0 29 32">
      <path
        d="M19.851 13.314a.21.21 0 0 0-.175-.241l-1.871-.296a.21.21 0 1 0-.066.416l1.663.263-.263 1.664a.21.21 0 1 0 .416.066l.296-1.871zm-9.622 7.067 9.538-6.93-.247-.341-9.538 6.93.248.341zM24.701 17.053a2.27 2.27 0 0 1 .173-.658c.093-.203.196-.358.311-.466l.285.208a1.72 1.72 0 0 0-.436.981c-.031.272-.011.472.059.601a.409.409 0 0 0 .322.218.304.304 0 0 0 .256-.076.592.592 0 0 0 .165-.246c.045-.105.086-.224.123-.355s.077-.263.122-.394c.044-.127.099-.242.166-.345a.758.758 0 0 1 .264-.24c.105-.054.239-.072.403-.054.156.017.291.077.404.177s.195.238.245.413c.053.179.066.389.039.632a2.088 2.088 0 0 1-.139.546 1.5 1.5 0 0 1-.242.436l-.291-.203c.101-.117.178-.246.231-.387.056-.141.093-.283.109-.428.029-.257.005-.453-.072-.586a.402.402 0 0 0-.317-.217.34.34 0 0 0-.267.069.765.765 0 0 0-.177.25 3.414 3.414 0 0 0-.123.355 5.02 5.02 0 0 1-.126.388c-.044.131-.1.248-.166.35a.625.625 0 0 1-.64.303.7.7 0 0 1-.419-.19.906.906 0 0 1-.238-.434 1.826 1.826 0 0 1-.026-.647zM26.672 21.102a1.31 1.31 0 0 1-.356.518.937.937 0 0 1-.531.236c-.208.027-.44-.011-.698-.114l-1.55-.62.145-.36 1.515.606c.281.112.522.126.721.041.202-.081.353-.248.456-.502.076-.19.104-.371.083-.544a.839.839 0 0 0-.2-.457 1.188 1.188 0 0 0-.473-.319l-1.403-.561.145-.361 3.771 1.508-.145.361-1.835-.734.166-.016c.159.162.255.358.289.587.037.231.004.475-.1.732zM22.514 22.446a1.51 1.51 0 0 1 .619-.463 1.43 1.43 0 0 1 .733-.075c.254.041.491.152.712.331.224.182.38.391.469.628s.113.479.07.727c-.042.248-.152.48-.33.698-.18.22-.388.376-.622.468-.237.094-.48.12-.728.078a1.491 1.491 0 0 1-.712-.331 1.496 1.496 0 0 1-.469-.628 1.373 1.373 0 0 1-.075-.73 1.51 1.51 0 0 1 .334-.702zm.268.217a1.094 1.094 0 0 0-.244.514.999.999 0 0 0 .067.541c.073.182.196.342.369.483.176.143.359.23.549.262a.983.983 0 0 0 .541-.047c.175-.064.328-.176.457-.334s.208-.329.236-.514c.031-.182.011-.362-.059-.542s-.193-.34-.369-.483a1.201 1.201 0 0 0-.549-.262 1.059 1.059 0 0 0-.548.048 1.086 1.086 0 0 0-.449.333zM19.979 24.742c.207-.137.425-.215.655-.232a1.3 1.3 0 0 1 .678.147c.219.117.416.306.591.567s.273.513.296.756c.025.247-.015.473-.119.678s-.261.378-.471.517a1.44 1.44 0 0 1-.714.252 1.303 1.303 0 0 1-.715-.142 1.52 1.52 0 0 1-.578-.529c-.162-.243-.253-.489-.271-.74s.029-.488.142-.713c.11-.222.279-.409.507-.561zm.659-1.682 2.19 3.27-.31.206-.481-.719-.288-.499-.368-.452-1.066-1.592.324-.215zm-.444 1.953c-.17.113-.297.252-.38.417a1.046 1.046 0 0 0-.1.54c.016.195.087.385.21.57s.272.321.444.408c.172.087.352.125.538.115s.365-.072.535-.185c.17-.113.297-.255.381-.424.081-.168.114-.348.1-.54-.017-.19-.088-.377-.212-.562s-.271-.323-.443-.415a1.05 1.05 0 0 0-.538-.115 1.108 1.108 0 0 0-.536.193zM16.254 29.188c-.231.036-.44.022-.627-.041a.924.924 0 0 1-.473-.337c-.129-.165-.215-.384-.258-.658l-.257-1.65.384-.059.251 1.612c.047.299.157.513.332.641.172.132.393.177.664.136.202-.031.372-.1.511-.206a.833.833 0 0 0 .291-.405c.056-.164.067-.354.033-.57l-.233-1.493.384-.059.442 2.839-.368.057-.121-.779.082.137c-.058.22-.177.402-.358.548-.18.15-.407.246-.681.288zM12.936 26.308c.274.04.513.138.715.293.198.158.344.355.438.59.094.239.12.499.078.78-.042.285-.142.527-.301.725s-.355.342-.59.433a1.492 1.492 0 0 1-.769.075 1.493 1.493 0 0 1-.72-.294 1.33 1.33 0 0 1-.439-.585 1.485 1.485 0 0 1-.078-.78c.042-.282.142-.523.301-.725a1.37 1.37 0 0 1 .591-.439 1.53 1.53 0 0 1 .775-.074zm-.051.341a1.101 1.101 0 0 0-.567.055 1.009 1.009 0 0 0-.431.335 1.196 1.196 0 0 0-.227.564c-.033.224-.015.426.054.605a.964.964 0 0 0 .317.439c.145.117.319.191.521.22s.39.009.562-.061c.172-.067.318-.177.436-.329s.194-.34.227-.564c.033-.22.014-.422-.054-.605a1.046 1.046 0 0 0-.321-.446 1.075 1.075 0 0 0-.516-.214zM10.539 25.818l-.419 3.04-.327-.177.407-2.81.149.081-2.164 1.86-.294-.159.392-2.818.149.081-2.155 1.866-.313-.169 2.331-2.007.323.174-.35 2.66-.101-.055 2.05-1.742.323.174zM5.941 22.196c.139.192.244.393.315.603.068.212.096.396.083.554l-.352.037a1.686 1.686 0 0 0-.077-.498 1.78 1.78 0 0 0-.262-.52c-.16-.222-.31-.357-.449-.405a.41.41 0 0 0-.386.055.305.305 0 0 0-.139.228.604.604 0 0 0 .043.293c.038.108.087.223.148.345s.12.246.175.373c.053.123.09.246.11.366a.747.747 0 0 1-.034.355.697.697 0 0 1-.262.31c-.127.092-.267.138-.419.14s-.306-.045-.46-.141a1.594 1.594 0 0 1-.455-.441 2.076 2.076 0 0 1-.265-.497 1.463 1.463 0 0 1-.114-.484l.353-.045c.004.155.034.302.09.441.053.142.122.272.208.39.152.21.301.338.448.386a.404.404 0 0 0 .381-.052.337.337 0 0 0 .151-.23.759.759 0 0 0-.037-.304 3.283 3.283 0 0 0-.148-.345 5.163 5.163 0 0 1-.168-.372 1.525 1.525 0 0 1-.113-.371.62.62 0 0 1 .271-.653.698.698 0 0 1 .439-.14.916.916 0 0 1 .469.162c.156.104.308.257.456.461zM1.753 20.529a1.306 1.306 0 0 1-.085-.622.924.924 0 0 1 .235-.53c.136-.159.333-.287.593-.383l1.566-.579.136.364-1.53.566c-.284.105-.471.256-.562.453-.095.195-.095.42.001.677.071.192.173.345.305.459a.846.846 0 0 0 .456.205c.172.022.36-.005.566-.081l1.417-.524.136.364-3.809 1.409-.136-.364 1.853-.685-.112.123a1.037 1.037 0 0 1-.61-.241 1.369 1.369 0 0 1-.42-.609zM3.92 16.759c.015.277-.033.53-.145.759a1.414 1.414 0 0 1-.491.547 1.49 1.49 0 0 1-.749.232c-.288.016-.545-.035-.77-.15s-.406-.28-.542-.492a1.49 1.49 0 0 1-.226-.739 1.509 1.509 0 0 1 .145-.764c.112-.229.274-.411.486-.547.212-.139.462-.217.749-.232a1.51 1.51 0 0 1 .77.15c.225.112.408.276.547.491.136.216.212.464.227.744zm-.345.019a1.097 1.097 0 0 0-.167-.545 1.003 1.003 0 0 0-.414-.356 1.195 1.195 0 0 0-.598-.11 1.18 1.18 0 0 0-.583.174.971.971 0 0 0-.368.398c-.086.165-.124.35-.112.554s.068.384.172.539c.1.155.236.276.409.362s.372.122.598.11c.222-.012.416-.07.583-.174.162-.104.287-.238.373-.404.082-.165.118-.348.107-.548zM4.242 13.351c-.061.241-.17.445-.329.612a1.288 1.288 0 0 1-.601.346c-.241.06-.514.052-.818-.024s-.547-.197-.727-.362c-.184-.166-.306-.361-.367-.583s-.06-.455.001-.699c.067-.265.187-.488.359-.666a1.29 1.29 0 0 1 .625-.374c.243-.067.504-.066.784.004.283.071.516.193.698.366s.307.381.374.624c.068.239.068.491.002.756zm.642 1.689-3.818-.954.091-.361.839.21.548.177.576.088 1.859.464-.095.377zm-.983-1.746c.05-.198.05-.386.001-.564a1.042 1.042 0 0 0-.289-.467c-.143-.134-.323-.227-.539-.281s-.417-.055-.603-.004a1.043 1.043 0 0 0-.748.772c-.05.198-.049.388.003.571.053.179.149.334.289.467.141.129.319.221.535.275s.418.058.607.011c.186-.051.345-.143.476-.276.129-.137.218-.305.268-.503zM3.999 7.578c.147-.181.311-.311.493-.39a.932.932 0 0 1 .577-.069c.206.035.418.14.634.314l1.3 1.048-.245.302-1.27-1.024c-.236-.19-.462-.274-.678-.251-.216.018-.411.133-.583.345a1.094 1.094 0 0 0-.24.496.84.84 0 0 0 .056.495c.069.159.188.306.359.444l1.176.948-.245.302-2.237-1.803.235-.289.614.495-.153-.046a1.027 1.027 0 0 1-.103-.646c.033-.231.136-.455.311-.67zM8.349 7.512a1.52 1.52 0 0 1-.727.263 1.434 1.434 0 0 1-.723-.141 1.497 1.497 0 0 1-.585-.524c-.161-.239-.25-.485-.267-.737s.032-.491.144-.716c.112-.225.285-.415.519-.572.236-.159.48-.247.731-.267.254-.021.494.024.72.137.229.11.424.285.585.524.159.236.248.482.267.737.019.251-.027.491-.141.721-.115.227-.29.419-.523.575zm-.193-.285c.173-.116.3-.256.383-.421.08-.168.111-.347.093-.537a1.19 1.19 0 0 0-.213-.569 1.188 1.188 0 0 0-.449-.411.975.975 0 0 0-.531-.112c-.186.011-.364.073-.534.187a1.051 1.051 0 0 0-.476.959c.015.192.086.382.213.569.125.184.274.321.449.411.173.086.352.124.539.113.184-.014.36-.077.527-.188zM10.498 6.236 8.765 3.699l.362-.087 1.588 2.358-.165.04.354-2.828.325-.079 1.604 2.355-.165.04.343-2.826.346-.084-.379 3.048-.356.086-1.529-2.209.112-.027-.349 2.664-.356.086zM16.333 5.834a2.296 2.296 0 0 1-.638-.237 1.477 1.477 0 0 1-.433-.356l.236-.263a1.73 1.73 0 0 0 .933.53c.268.057.469.057.605.001a.407.407 0 0 0 .249-.299.305.305 0 0 0-.05-.263.605.605 0 0 0-.228-.189c-.1-.055-.214-.107-.341-.157s-.254-.103-.38-.16a1.558 1.558 0 0 1-.327-.199.754.754 0 0 1-.213-.286.7.7 0 0 1-.013-.406c.033-.153.105-.282.217-.385s.257-.171.436-.203c.183-.035.394-.028.633.023.182.039.359.103.53.192.172.085.308.18.409.283l-.232.27a1.257 1.257 0 0 0-.362-.268 1.61 1.61 0 0 0-.416-.15c-.253-.054-.45-.05-.591.014a.401.401 0 0 0-.248.294.337.337 0 0 0 .042.272.769.769 0 0 0 .231.201c.104.056.217.108.341.157.127.05.252.104.373.164.126.057.237.123.332.2a.615.615 0 0 1 .237.667.696.696 0 0 1-.231.398.908.908 0 0 1-.456.194 1.816 1.816 0 0 1-.647-.038zM20.603 4.274c.207.108.367.243.48.405.118.16.178.344.181.551.006.209-.056.436-.185.682l-.776 1.478-.345-.18.758-1.444c.141-.268.179-.506.114-.712-.06-.208-.211-.375-.454-.502a1.098 1.098 0 0 0-.534-.136.85.85 0 0 0-.476.153 1.192 1.192 0 0 0-.366.439l-.702 1.338-.345-.18L19.84 2.57l.345.18-.918 1.75.001-.166c.178-.142.382-.218.615-.229.234-.014.474.043.72.172zM21.541 8.529a1.517 1.517 0 0 1-.402-.659 1.427 1.427 0 0 1-.003-.734c.066-.248.2-.472.401-.674.203-.204.428-.339.673-.404s.49-.065.733.001.465.198.664.396c.202.2.338.421.406.663.071.245.073.488.007.73-.064.245-.197.47-.401.674a1.502 1.502 0 0 1-.673.404 1.376 1.376 0 0 1-.737.003 1.53 1.53 0 0 1-.668-.399zm.243-.245c.148.146.311.244.49.292.181.046.363.041.547-.014.188-.055.361-.161.518-.319.16-.16.265-.333.316-.519a.958.958 0 0 0 .006-.541c-.047-.18-.143-.342-.289-.486s-.308-.238-.489-.284c-.179-.048-.361-.046-.547.006s-.359.158-.518.319a1.206 1.206 0 0 0-.316.519 1.044 1.044 0 0 0-.006.549c.05.178.146.337.289.478zM23.572 11.22a1.347 1.347 0 0 1-.17-.673c.008-.232.078-.452.211-.659.138-.206.345-.383.621-.531s.538-.222.783-.22c.248-.001.47.061.665.184s.352.296.472.517c.13.241.191.485.184.734-.002.25-.072.482-.209.696a1.508 1.508 0 0 1-.582.523c-.257.138-.512.204-.764.198s-.484-.076-.698-.21a1.443 1.443 0 0 1-.512-.558zm-1.615-.817 3.469-1.858.177.328-.762.408-.525.238-.486.322-1.689.904-.184-.342zm1.906.631c.097.18.224.319.38.417.16.097.336.147.529.151.196.003.392-.049.589-.154s.346-.239.449-.402c.103-.163.158-.337.166-.523s-.037-.369-.134-.549a1.043 1.043 0 0 0-.917-.57c-.191-.001-.385.051-.581.156s-.348.238-.456.4a1.047 1.047 0 0 0-.166.523 1.11 1.11 0 0 0 .142.551z" />
    </symbol>
    <symbol id="icon-close" viewBox="0 0 18 18">
      <path stroke-linecap="round" stroke-width="2" d="M15 3L3 15M15 15L3 3L15 15Z" />
    </symbol>
    <symbol id="icon-facebook" viewBox="0 0 32 32">
      <path fill="none" stroke="#fff" style="stroke: var(--color1, #fff)" stroke-linejoin="round" stroke-linecap="round"
        stroke-miterlimit="4" stroke-width="2.2857"
        d="M24 2.667h-4c-1.768 0-3.464 0.702-4.714 1.953s-1.953 2.946-1.953 4.714v4h-4v5.333h4v10.667h5.333v-10.667h4l1.333-5.333h-5.333v-4c0-0.354 0.14-0.693 0.39-0.943s0.589-0.391 0.943-0.391h4v-5.333z">
      </path>
    </symbol>
    <symbol id="icon-instagram" viewBox="0 0 32 32">
      <path fill="none" stroke="#fff" style="stroke: var(--color1, #fff)" stroke-linejoin="round" stroke-linecap="round"
        stroke-miterlimit="4" stroke-width="2.2857"
        d="M22.666 2.667h-13.333c-3.682 0-6.667 2.985-6.667 6.667v13.333c0 3.682 2.985 6.667 6.667 6.667h13.333c3.682 0 6.667-2.985 6.667-6.667v-13.333c0-3.682-2.985-6.667-6.667-6.667z">
      </path>
      <path fill="none" stroke="#fff" style="stroke: var(--color1, #fff)" stroke-linejoin="round" stroke-linecap="round"
        stroke-miterlimit="4" stroke-width="2.2857"
        d="M21.333 15.16c0.164 1.11-0.025 2.243-0.542 3.239s-1.334 1.803-2.336 2.308c-1.002 0.504-2.137 0.68-3.245 0.502s-2.131-0.701-2.924-1.494c-0.793-0.793-1.316-1.816-1.494-2.924s-0.003-2.243 0.502-3.245c0.504-1.002 1.312-1.82 2.307-2.336s2.129-0.706 3.239-0.542c1.132 0.168 2.18 0.695 2.989 1.504s1.337 1.857 1.504 2.989z">
      </path>
      <path fill="none" stroke="#fff" style="stroke: var(--color1, #fff)" stroke-linejoin="round" stroke-linecap="round"
        stroke-miterlimit="4" stroke-width="2.2857" d="M23.334 8.667h0.013"></path>
    </symbol>
    <symbol id="icon-Logo" viewBox="0 0 41 32">
      <path
        d="M16.241 31.144v-4.916l-.219-.922v-8.384c0-1.785-.527-3.16-1.58-4.126-1.024-.995-2.575-1.492-4.653-1.492-1.375 0-2.721.234-4.038.702-1.317.439-2.429 1.039-3.336 1.8L.659 10.645c1.2-.966 2.634-1.697 4.302-2.195a17.807 17.807 0 0 1 5.311-.79c3.19 0 5.648.775 7.374 2.326s2.59 3.921 2.59 7.111v14.047h-3.994zm-7.637.263c-1.727 0-3.248-.293-4.565-.878-1.288-.585-2.283-1.39-2.985-2.414C.352 27.062 0 25.876 0 24.559c0-1.258.293-2.4.878-3.424.615-1.024 1.595-1.844 2.941-2.458 1.375-.615 3.219-.922 5.531-.922h7.375v3.029H9.526c-2.107 0-3.526.351-4.258 1.053s-1.097 1.551-1.097 2.546c0 1.141.454 2.063 1.361 2.765.907.673 2.166 1.01 3.775 1.01 1.58 0 2.956-.351 4.126-1.053 1.2-.702 2.063-1.727 2.59-3.073l.834 2.897c-.556 1.375-1.536 2.473-2.941 3.292-1.405.79-3.175 1.185-5.311 1.185z" />
      <path
        d="M29.718 31.407c-2.487 0-4.682-.512-6.584-1.536-1.873-1.024-3.336-2.429-4.39-4.214-1.024-1.785-1.536-3.834-1.536-6.145s.497-4.36 1.492-6.145c1.024-1.785 2.414-3.175 4.17-4.17 1.785-1.024 3.79-1.536 6.014-1.536 2.253 0 4.243.498 5.97 1.492s3.073 2.4 4.038 4.214c.995 1.785 1.492 3.878 1.492 6.277 0 .176-.015.38-.044.614 0 .234-.015.454-.044.659H20.499v-3.029h17.602l-1.712 1.053c.029-1.492-.278-2.824-.922-3.995s-1.536-2.078-2.678-2.722c-1.112-.673-2.414-1.01-3.907-1.01-1.463 0-2.765.337-3.907 1.01-1.141.644-2.034 1.566-2.678 2.765-.644 1.171-.966 2.517-.966 4.038v.702c0 1.551.351 2.941 1.053 4.17.732 1.2 1.741 2.136 3.029 2.809s2.765 1.01 4.433 1.01c1.375 0 2.619-.234 3.731-.702a8.183 8.183 0 0 0 2.985-2.107l2.327 2.721c-1.053 1.229-2.37 2.166-3.951 2.809-1.551.644-3.292.966-5.224.966zM37.311 3.292H21.947V0h15.364v3.292z" />
    </symbol>
    <symbol id="icon-menu" viewBox="0 0 32 32">
      <path d="M4 5.333h24V8H4V5.333zm8 9.334h16v2.667H12v-2.667zM4 24h24v2.667H4V24z" />
    </symbol>
    <symbol id="icon-tel" viewBox="0 0 32 32">
      <path
        d="m29.387 5.978-3.905-3.901a2.521 2.521 0 0 0-3.578 0l-4.206 4.198a2.529 2.529 0 0 0 0 3.586l3.285 3.289a14.853 14.853 0 0 1-3.168 4.667 14.896 14.896 0 0 1-4.664 3.175l-3.285-3.289a2.521 2.521 0 0 0-3.579 0l-4.209 4.198a2.529 2.529 0 0 0 0 3.586l3.901 3.901a4.39 4.39 0 0 0 3.087 1.279c.238 0 .469-.018.704-.059 4.855-.799 9.673-3.384 13.563-7.27 3.887-3.893 6.468-8.711 7.275-13.569a4.37 4.37 0 0 0-1.221-3.791zm-1.379 3.355c-.715 4.322-3.04 8.634-6.541 12.135s-7.81 5.826-12.133 6.541a1.724 1.724 0 0 1-1.496-.484l-3.832-3.831 4.063-4.066 4.426 4.432.792-.293a17.657 17.657 0 0 0 10.476-10.478l.293-.792-4.429-4.425 4.063-4.066 3.832 3.831c.396.396.579.953.488 1.496z" />
    </symbol>
    <symbol id="icon-slider-prev-black" viewBox="0 0 97 64" fill="none">
      <circle stroke="#000" cx="65" cy="32" r="31.5"/>
      <path fill="#000" d="M.646 31.646a.5.5 0 0 0 0 .708l3.182 3.181a.5.5 0 1 0 .708-.707L1.707 32l2.829-2.828a.5.5 0 1 0-.708-.707L.646 31.646ZM1 32.5h66v-1H1v1Z"/>
    </symbol>
    <symbol id="icon-slider-next-black" viewBox="0 0 97 64" fill="none">
      <circle stroke="#000" cx="32" cy="32" r="31.5"/>
      <path fill="#000" d="M96.354 32.354a.5.5 0 0 0 0-.708l-3.182-3.181a.5.5 0 1 0-.707.707L95.293 32l-2.829 2.828a.5.5 0 1 0 .708.707l3.182-3.181ZM30 32.5h66v-1H30v1Z"/>
    </symbol>
    <symbol id="icon-slider-prev-white" viewBox="0 0 97 64" fill="none">
      <circle stroke="#fff" cx="65" cy="32" r="31.5"/>
      <path fill="#fff" d="M.646 31.646a.5.5 0 0 0 0 .708l3.182 3.181a.5.5 0 1 0 .708-.707L1.707 32l2.829-2.828a.5.5 0 1 0-.708-.707L.646 31.646ZM1 32.5h66v-1H1v1Z"/>
    </symbol>
    <symbol id="icon-slider-next-white" viewBox="0 0 97 64" fill="none">
      <circle stroke="#fff" cx="32" cy="32" r="31.5"/>
      <path fill="#fff" d="M96.354 32.354a.5.5 0 0 0 0-.708l-3.182-3.181a.5.5 0 1 0-.707.707L95.293 32l-2.829 2.828a.5.5 0 1 0 .708.707l3.182-3.181ZM30 32.5h66v-1H30v1Z"/>
    </symbol>
    <symbol id="icon-gratitude" viewBox="0 0 188 142" fill="none">
      <path fill="#F58B3D" fill-rule="evenodd" d="M173.641 113.595c2.406 16.38-55.949 27.064-106.176 19.608-50.227-7.456-73.269-36.573-49.301-52.087 23.967-15.514 153.07 16.1 155.477 32.479Z" clip-rule="evenodd" opacity=".505"/><path fill="#F58B3D" fill-rule="evenodd" d="M101.453 45.342c.908-.632 2.317-.23 3.231.143a9.865 9.865 0 0 1 1.92 1.121c-.089-.358-.167-.72-.236-1.085a36.904 36.904 0 0 1-.57-4.548c-.025-.396.007-.84.039-1.288.011-.152.022-.305.031-.457a.256.256 0 0 1-.072-.152l-.008.067c-.002.028-.004.042-.008.043-.005.001-.014-.01-.031-.034l-.023-.033c-.676-.92-1.243-1.956-1.321-3.095-.066-.966.806-2.794 2.042-1.529.553.566.409 4.535-.421 4.778.221 1.315.501 2.628.85 3.925a.561.561 0 0 1 .158-.003 10.02 10.02 0 0 1 .009-.795c.125-1.042 1.081-3.157 2.603-2.746 1.169.316.452 1.615.054 2.183-.64.916-1.365 1.312-2.283 1.788-.018.197-.157.311-.322.348.615 2.094 1.422 4.136 2.478 6.065l.028-.123c.135-.585.291-1.268.39-1.411.518-.75 1.664-1.667 2.721-1.223 2.22.934-.19 3.617-2.08 3.91a.804.804 0 0 1-.25.223c.367.582.76 1.152 1.18 1.708.63.835 1.307 1.668 2.016 2.496.022-.648.303-2.091.382-2.246.485-.942 1.882-1.911 3.015-1.242 1.275.755.119 2.18-.608 2.825-.298.264-1.772 1.233-2.291 1.238 1.714 1.952 3.606 3.87 5.53 5.72-.159-.828-.367-3.108-.344-3.36.119-1.307 1.062-3.396 2.919-2.887 1.802.493 1.005 2.663.388 3.698-.374.626-.89 1.262-1.513 1.699-.112.079-.259.143-.405.207-.177.077-.353.154-.468.257-.103.09-.134.195-.166.299-.033.11-.065.218-.181.309 1.04.995 2.087 1.969 3.119 2.916.487.447.983.886 1.483 1.319.274-.104.665.032.644.386a.364.364 0 0 1-.033.136c.379.321.761.64 1.146.956a2.143 2.143 0 0 1 .012-.4c-.277.358-.266-.164-.257-.563.003-.14.006-.266-.005-.331-.04-.257-.093-.51-.146-.763-.112-.541-.224-1.08-.218-1.639.012-1.185.836-3.17 2.57-2.465 1.594.647 1.014 2.403.413 3.505-.381.696-.902 1.318-1.447 1.914-.097.106-.205.25-.311.393-.159.211-.315.42-.43.497a219.53 219.53 0 0 0 4.511 3.555c.679.526 1.358 1.051 2.033 1.58.029-.116.054-.231.074-.339a.212.212 0 0 1-.173.06l-.082-.35c-.417-1.732-1.688-7.01 1.753-5.987 2.521.751.741 5.347-1.139 6.955 1.141.898 2.271 1.807 3.375 2.743a46.508 46.508 0 0 1 2.32 2.102c-.386-.938-.749-2.151-.511-3.117.348-1.405 1.976-2.732 3.565-1.933 1.981 1.001.457 2.37-.972 3.652-.73.654-1.435 1.287-1.636 1.837 2.37 2.375 4.394 5.014 5.746 8.02 1.471 3.268 2.836 7.66 2.081 11.316.139-1.608-.457-3.626-.876-5.044-.057-.193-.111-.375-.159-.544a27.353 27.353 0 0 0-2.7-6.34c-1.887-3.208-4.379-5.93-7.257-8.403-.655.208-1.366.593-1.956.912-.361.196-.677.367-.905.456-1.101.433-3.214 1.053-3.916-.31-.689-1.34 1.071-2.09 2.162-2.39 1.054-.29 2.004-.255 2.988-.017-1.523-1.23-3.083-2.422-4.643-3.612l-.861-.658c-.396.296-.834.724-1.299 1.179-1.476 1.443-3.224 3.152-4.785 1.755-2.357-2.107 2.15-4.25 4.07-4.082.236.02.464.066.686.127-1.958-1.514-3.886-3.06-5.709-4.714-.327.054-.848.493-1.473 1.02-1.407 1.184-3.342 2.815-4.8 1.53-1.053-.926-.693-2.369.325-3.194 1.021-.829 2.502-.828 3.761-.548.544.12 1.046.349 1.514.628l.058.003c-1.794-1.645-3.599-3.327-5.337-5.067a8.173 8.173 0 0 0-.093.028.493.493 0 0 1-.442.134l-.273.086c-1.377.432-3.146.989-4.519.75-1.01-.178-1.927-.926-1.071-1.847.694-.75 2.58-.642 3.5-.464.449.086.938.338 1.428.59.206.105.412.212.616.306a.402.402 0 0 1 .25-.19c-1.716-1.748-3.354-3.556-4.84-5.443-.45.063-.948.243-1.463.429-1.238.447-2.566.926-3.52-.107-1.407-1.524 1.24-2.414 2.498-2.27.425.05.844.16 1.249.304a19.333 19.333 0 0 1-2.487-4.958.395.395 0 0 1-.018.007l.017-.01c-.058-.175-.114-.35-.166-.526a2.08 2.08 0 0 0-.235-.101c.572.359-1.84.535-2.291.568-.999.072-2.337.1-3.07-.646-.615-.626-.579-1.551.174-2.075Zm45.975 52.754c-.043.53-.148 1.015-.344 1.415.147-.456.26-.93.344-1.415Z" clip-rule="evenodd"/><path fill="#F1F447" fill-rule="evenodd" d="M56.111 11.5c-.663-.457-1.691-.165-2.359.105a7.223 7.223 0 0 0-1.402.811c.065-.26.122-.521.173-.785.206-1.085.349-2.19.418-3.289.018-.286-.005-.607-.029-.931l-.021-.33a.188.188 0 0 0 .052-.11l.005.048c.002.02.003.03.007.031.003 0 .01-.008.022-.025l.017-.023c.494-.666.909-1.415.966-2.239.048-.699-.587-2.02-1.49-1.105-.405.41-.301 3.28.305 3.455-.163.951-.367 1.9-.622 2.838a.414.414 0 0 0-.116-.002 6.726 6.726 0 0 0-.006-.574c-.091-.754-.788-2.283-1.899-1.985-.854.228-.331 1.167-.04 1.578.466.662.995.949 1.665 1.293.013.142.115.224.235.251a21.896 21.896 0 0 1-1.811 4.386l-.021-.088c-.098-.424-.212-.917-.284-1.021-.378-.542-1.214-1.205-1.986-.883-1.621.676.137 2.615 1.517 2.826a.594.594 0 0 0 .182.162c-.268.42-.555.833-.862 1.235-.46.604-.954 1.206-1.473 1.805-.016-.468-.22-1.511-.278-1.623-.354-.681-1.373-1.381-2.2-.897-.932.545-.088 1.576.442 2.042.217.191 1.293.891 1.673.894-1.253 1.413-2.635 2.8-4.041 4.139.117-.6.27-2.248.253-2.43-.087-.945-.774-2.456-2.13-2.087-1.316.357-.735 1.926-.285 2.674.272.453.65.913 1.104 1.228.082.057.189.104.296.15.129.056.257.111.341.185a.414.414 0 0 1 .12.217c.025.079.049.157.133.223-.76.72-1.524 1.425-2.278 2.11-.356.323-.718.64-1.084.954-.2-.075-.485.024-.47.28.002.036.011.068.024.098-.277.232-.556.463-.837.691a1.55 1.55 0 0 0-.008-.29c.202.26.194-.118.187-.406-.002-.102-.004-.192.004-.24.03-.185.068-.368.107-.552.082-.39.164-.78.16-1.184-.008-.857-.609-2.293-1.876-1.782-1.164.469-.741 1.738-.302 2.534.277.504.658.954 1.055 1.384.07.077.15.181.227.284.116.153.23.303.314.36-1.081.874-2.188 1.723-3.295 2.572-.496.38-.992.76-1.485 1.143a4.574 4.574 0 0 1-.055-.245c.031.031.073.046.127.043.014-.064.035-.15.06-.253.306-1.253 1.236-5.07-1.277-4.329-1.841.544-.544 3.867.828 5.029-.833.65-1.659 1.307-2.465 1.985-.584.49-1.15.997-1.695 1.52.282-.678.548-1.555.374-2.254-.253-1.016-1.44-1.975-2.601-1.396-1.448.725-.335 1.713.708 2.64.533.473 1.047.93 1.194 1.328-1.732 1.718-3.21 3.627-4.2 5.8-1.074 2.364-2.073 5.54-1.523 8.184-.101-1.162.335-2.622.641-3.648l.117-.392a19.686 19.686 0 0 1 1.974-4.586c1.379-2.32 3.2-4.29 5.302-6.079.478.15.997.429 1.427.66.264.14.494.264.66.329.805.312 2.348.76 2.86-.226.504-.97-.78-1.51-1.577-1.727-.77-.21-1.463-.184-2.181-.012 1.112-.89 2.252-1.752 3.39-2.614l.63-.475c.289.214.608.523.948.852 1.077 1.043 2.352 2.278 3.493 1.268 1.721-1.525-1.568-3.073-2.97-2.95a2.787 2.787 0 0 0-.501.091c1.43-1.096 2.838-2.214 4.17-3.41.239.039.619.356 1.075.736 1.027.856 2.44 2.035 3.504 1.106.77-.67.507-1.714-.236-2.31-.745-.6-1.826-.598-2.746-.395a3.757 3.757 0 0 0-1.105.454l-.043.003c1.311-1.19 2.63-2.408 3.9-3.666l.067.02c.077.085.205.116.323.097l.197.061h.002c1.005.313 2.297.715 3.299.541.738-.128 1.407-.67.783-1.335-.507-.542-1.884-.463-2.556-.335-.327.063-.684.245-1.042.427-.15.077-.301.154-.45.222a.293.293 0 0 0-.183-.137c1.254-1.265 2.451-2.573 3.537-3.938.328.046.692.176 1.067.31.904.323 1.874.669 2.57-.078 1.029-1.103-.904-1.746-1.823-1.64-.31.035-.616.114-.911.22a13.952 13.952 0 0 0 1.818-3.587l.011.006a.198.198 0 0 0 .02.009l-.018-.01-.013-.007c.042-.126.083-.253.122-.38a1.49 1.49 0 0 1 .17-.074c-.417.26 1.344.386 1.674.41.73.052 1.706.072 2.241-.468.45-.453.424-1.122-.126-1.5Zm-33.62 38.053c.032.353.128.675.316.94a4.874 4.874 0 0 1-.316-.94Z" clip-rule="evenodd" opacity=".2"/><g fill-rule="evenodd" clip-rule="evenodd" opacity=".7"><path fill="#B45661" d="M127.731 73.796c3.574-.168 7.995 1.73 8.377 5.267.277 2.569.191 5.13.62 7.697.342 2.05 1.067 4.018 2.056 5.886.951 1.796 2.924 3.324 3.437 5.243.327 1.223.144 2.942-.307 4.138-.548 1.454-.257 1.339.836 2.559 2.141 2.391 4.069 4.843 5.432 7.698 1.964 4.113 3.252 8.92 2.523 13.422-.093.571-.203 2.623-1.068 2.767-.966.16-.514-1.013-.463-1.392.329-2.419.621-4.533.225-6.989-1.53-9.477-9.001-15.72-13.865-23.763-.268-.415-.832-1.403-1.225-2.054-.619-1.03-1.242-2.986-2.081-3.75-1.58-1.436-.128 1.453.18 2.004.389.698.818 1.44 1.217 2.05 1.825 2.834 3.862 5.927 5.746 8.848-8.151 1.69-13.892-7.228-16.08-13.092-1.803-4.83-3.959-16.125 4.44-16.538Z" opacity=".7"/><path fill="#E7502F" d="M175.643 64.826c-5.976.431-9.813 4.02-11.598 9.039-.963 2.705-1.073 5.483-1.608 8.263-.805 4.182-2.536 7.351-5.919 10.33-1.048.923-1.821 1.87-2.369 2.884-1.09 1.012-2.039 2.157-2.736 3.558-.89 1.788-1.142 3.933-.114 5.716.276.479.966 1.441 1.68 1.878-2.675 5.185-4.146 10.864-3.98 16.536.1 3.423.284 6.848.498 10.267.058.918.386 2.435.879.895.452-1.409-.114-3.62-.167-5.091-.255-7.168-.472-13.685 2.77-20.381.34-.702.7-1.399 1.076-2.089.022-.012.042-.026.063-.04l.042.031c.023-.039.056-.085.095-.137a1.92 1.92 0 0 0 .291-.371c.287-.363.613-.789.615-1.023l-.002-.006c2.007-2.982 4.306-5.799 6.655-8.561-.018.02 2.547-3.158 2.15-1.4-.191.847-2.077 2.46-2.839 3.356-1.686 1.996-3.665 4.525-5.31 6.97-.221.116-.533.684-.76 1.107-.125.215-.241.431-.356.619 5.828 1.752 10.361-1.777 13.453-5.882l.01-.015c.941-1.134 1.904-2.26 3.108-3.157 2.009-1.496 4.16-1.76 6.528-2.497 6.458-2.008 9.203-9.624 10.075-15.276.984-6.375-3.828-16.152-12.23-15.523Z" opacity=".7"/><path fill="#E7502F" d="M163.838 46.97c-6.133 5.81-9.096 13.867-11.442 21.442-2.621 8.46-4.352 17.05-4.418 25.846-.044 5.779-.216 11.594.154 17.367.132 2.05.356 4.103.713 6.131.03.167.829 4.695 1.593 3.64.435-.6-.819-4.697-.913-5.38-.533-3.844-.657-7.715-.631-11.587.042-6.374-.164-12.716.546-19.066.106-.949.19-1.944.437-2.872.263-.986-.072-.556.784-.946.832-.38 1.859-.326 2.722-.802 3.423-1.888 5.174-6.74 6.537-9.924 1.559-3.64 2.506-7.522 3.263-11.353a73.178 73.178 0 0 0 1.177-8.464c.071-.898.075-1.838.269-2.721.053-.239.315-.66.305-.871-.02-.447-.316-.71-.34-1.085a23.5 23.5 0 0 0-.756.646ZM130.396 124.367c0 9.607 8.557 17.395 19.114 17.395 10.556 0 19.114-7.788 19.114-17.395" opacity=".7"/><path fill="#B45661" d="M162.609 109.137c4.731-.317 10.014 3.156 12.295 6.77 1.84 2.914 1.53 6.741.394 9.837-.761 2.073-2.421 5.028-5.191 5.057-3.464.036-3.631-3.861-3.698-6.139-.089-3.029-.51-5.667-3.133-7.732-.323-.255-.663-.493-1.003-.732a25.045 25.045 0 0 1-.893-.646l-.14-.107c-.927-.709-1.901-1.454-2.02-2.624-.171-1.694.879-1.999 2.484-1.684.052.01.192.059.383.125.82.282 2.569.886 2.238.165-.125-.272-.58-.487-1.154-.649-1.485-.147-3.258-.317-3.767-.215-5.497 1.097-7.638 8.027-8.206 12.43-.062.475-.111.952-.155 1.43h-1.01c.071-1.154.163-2.305.375-3.445.81-4.361 3.344-10.767 8.9-11.475.205-.026.959-.031 1.872.018.433-.22.918-.353 1.429-.384Z" opacity=".7"/></g><g fill-rule="evenodd" clip-rule="evenodd" opacity=".5"><path fill="#B45661" d="M46.666 42.027c1.1-1.427 3.142-5.054 4.69-5.564.998-.328.707 3.07.72 3.719.047 2.508-.22 5-.552 7.486-.597 4.485-2.548 8.478-5.225 12.295-1.377 1.964-2.993 3.952-5.23 5.177-1.03.564-2.27.659-3.287 1.145-1.185.566-.54.109-1.074 1.232-.741 1.56-.978 3.572-1.321 5.236-1.575 7.64-5.389 48.027-4.727 55.798.058.689-.997.853-1.05.012-.28-4.458 2.143-35.334 3.366-45.431 1.223-10.098 2.46-19.019 3.7-22.512 1.505-4.238 4.223-9.335 6.485-13.287 1.051-1.836 2.197-3.61 3.505-5.306Z" opacity=".5"/><path fill="#F1F447" d="M54.833 91.55c2.863-1.913 5.962 1.698 3.371 3.61-1.432 1.058-2.93.682-3.773-.2-.547.608-1.059 1.243-1.551 1.779a89.914 89.914 0 0 0-4.271 5.018c-2.814 3.556-5.225 7.313-7.747 11-2.488 3.64-4.956 7.299-7.21 11.031-1.911 3.162-4.458 6.882-5.112 10.349.993-7.352 4.758-14.419 9.243-20.9 4.448-6.428 9.552-13.448 16.439-18.52-.701-.939-.72-2.278.61-3.167Z" opacity=".5"/><path fill="#B45661" d="M.501 73.62c1.602.285 4.22 3.584 5.541 4.84 1.57 1.494 2.994 3.086 4.336 4.754A79.47 79.47 0 0 1 18.049 94.6c3.583 6.489 6.453 13.15 8.536 20.215 1.275 4.325 2.101 8.808 2.59 13.26.092.84 1.06 7.312-.334 7.487-1.254.157-.866-4.915-.927-5.605-.683-7.784-2.731-15.357-5.58-22.693-.62-1.598-1.196-3.556-2.189-4.994-.714-1.036-.005-.675-1.26-1.067-1.079-.337-2.307-.254-3.411-.667-2.399-.895-4.32-2.633-6.003-4.38-3.272-3.398-5.864-7.073-7.216-11.426-.75-2.413-1.438-4.84-1.82-7.329-.1-.643-.966-3.965.066-3.782Z" opacity=".5"/><path fill="#E7502F" d="M6.824 18.74c6.035 9.525 10.995 19.988 14.197 30.586 1.94 6.421 3.297 13.01 4.646 19.551 2.087 10.129 4.062 20.256 4.623 30.565.565 10.367 1.683 22.326-2.048 32.312 1.864-10.139.09-20.93-.225-31.132-.15-4.87-.585-9.692-1.156-14.534-.553-4.696-1.458-9.37-2.3-14.03-.41-2.27-.842-4.535-1.28-6.8-.132-.676-.187-2.68-.658-3.142-.474-.465-2.892-.654-3.652-.995-1.529-.687-2.967-1.662-4.24-2.693-2.44-1.975-4.563-4.557-6.238-7.101-3.877-5.888-5.426-13.073-5.348-19.892.015-1.323 2.354-15.58 1.415-15.776.056-.06.11-.122.16-.187.712 1.084 1.41 2.175 2.104 3.268Z" opacity=".5"/><path fill="#E7502F" d="M71.965 53.094c.093-.123.7-.973.394-.918.622-.111-.854.937.694.294-.735.632-.311 1.453-.301 2.303.016 1.38-.238 2.75-.524 4.101-.451 2.136-1.124 4.212-2.1 6.199C68 69.4 64.386 73.569 60.096 76.275c-2.117 1.336-4.192 1.791-6.608 2.406-1.526.389-1.646 1.107-2.456 2.454-1.686 2.806-3.342 5.602-4.829 8.503-1.775 3.463-3.498 6.931-5.124 10.456-5.477 11.872-9.935 24.172-12.276 36.902-.057-7.501 1.85-15.227 4.255-22.378 1.753-5.209 4.033-10.231 6.466-15.201.59-1.205 1.483-2.754 1.734-4.084.175-.931-.361-1.827-.606-2.808-.957-3.822-.889-8.103-.049-11.945.927-4.236 3.605-6.203 8.137-6.802 1.657-.22 3.764-.14 5.283-.783 1.655-.7 2.338-3.002 3.28-4.479 2.529-3.97 5.533-7.775 8.983-11.12a28.316 28.316 0 0 1 3.072-2.572c.687-.5 2.139-1.115 2.607-1.73Z" opacity=".5"/><path fill="#F1F447" d="M19.86 130.259c-.117-.719.495-1.365 1.294-1.365h16.082c.799 0 1.411.646 1.295 1.365l-1.243 7.67c-.379 2.339-2.584 4.071-5.18 4.071h-5.825c-2.597 0-4.802-1.732-5.18-4.071l-1.244-7.67Z" opacity=".5"/></g><path fill="#F58B3D" fill-rule="evenodd" d="M6.655 132.816c0 5.072.44 9.184 6.344 9.184s6.344-4.112 6.344-9.184" clip-rule="evenodd"/><path fill="#F58B3D" fill-rule="evenodd" d="M14.756 129.651c-.217.34-.41.688-.58 1.04-.006-.726.038-1.457.158-2.198.206-1.271.52-2.534.816-3.795.213-.907.2-2.534 1.005-3.257.221-.156.275.15.275.283.002.028-.001-.542-.215-.443-1.276.599-1.69 2.484-2.097 3.428-.596 1.377-1.103 2.785-1.312 4.218a8.602 8.602 0 0 0-.088 1.086c-.043-.097-.084-.194-.129-.291a19.32 19.32 0 0 0-2.968-4.518c-.305-.347-4.14-3.78-4.44-3.254.03.076.092.139.186.189.006.006.006.003.003-.006.225.332.865.843 1.065 1.133.502.73.892 1.505 1.288 2.264a114.965 114.965 0 0 1 2.368 4.854c.175.378.358.755.545 1.13-1.923-2.523-4.487-4.814-8.018-6.125 1.206.558 1.997 1.608 2.811 2.412.982.97 2.016 1.914 3 2.883 1.161 1.143 2.527 2.347 3.643 3.611 1.081 2.066 2.132 4.134 2.78 6.306-.265-.75-.02-1.787-.066-2.575a15.924 15.924 0 0 0-.227-1.869c.137.28.254.56.307.821a47.382 47.382 0 0 0-.164-1.303c.154-.405.306-.782.408-1.093.525-1.594 1.15-3.161 2.001-4.688a41.11 41.11 0 0 1 2.675-4.16c.46-.631.925-1.259 1.388-1.888.303-.412.59-1.072 1.012-1.466-2.724 2.267-5.702 4.55-7.43 7.271ZM180.049 26.154c-.781-2.372-2.615-4.228-4.519-5.928-3.706-3.31-5.7-5.357-7.021-10.2-.777-2.848-1.567-5.866-4.031-7.932-1.794-1.505-4.882-2.769-7.281-1.692-3.691 2.005-4.683 6.12-4.31 9.804.461 4.566 2.805 7.382 7.308 9.064 2.537.947 4.223 2.197 5.601 4.375 1.101 1.741 1.743 3.922 3.128 5.5 2.07 2.36 4.659 3.41 7.852 3.018-2.99-5.007-6.484-10.06-10.698-14.276-.394-.424-2.721-2.046-2.252-2.768.517-.795 2.906 2.192 2.889 2.174 1.224 1.28 2.358 2.639 3.47 4.011l-.009.003a207.238 207.238 0 0 1 3.397 4.285c.451.612.89 1.232 1.31 1.867.616.932 1.595 3.579 2.604 4.152.216.123.415.191.602.22a84.306 84.306 0 0 1 1.995 3.105c1.663 2.732 3.091 5.617 3.746 8.702.192.9.056 4.268.732 4.918 1.235 1.188.873-1.101.799-1.792-.613-5.722-2.871-10.597-6.148-15.407 1.007-1.197 1.152-4.243.836-5.203ZM137.761 28.918c1.302-1.395 4.431-1.632 6.345-1.539 2.367.116 4.8.64 7.053 1.275 3.711 1.044 7.317 2.951 10.586 4.797.393.222 5.246 2.878 4.817 3.344-.426.462-5.19-2.693-6.252-3.237-2.265-1.16-4.343-2.533-6.84-3.3-2.586-.793-5.321-1.107-8.04-1.086-.349.003-1.487-.218-1.512.252-.024.46 1.86.22 2.192.222 1.372.012 2.752.13 4.104.346 2.534.405 4.916 1.221 7.086 2.474-.606 1.28-2.057 1.872-3.58 1.55-1.316-.276-2.598-.96-3.887-1.157-.888-.137-1.776-.056-2.637.172-2.27.6-3.579 1.83-6.075.975-1.957-.67-5.229-3.08-3.36-5.088ZM132.163 6.43c-2.89-.192-6.117 1.907-7.511 4.091-1.124 1.761-.935 4.074-.241 5.945.465 1.253 1.48 3.04 3.172 3.057 2.116.021 2.218-2.334 2.259-3.71.054-1.831.312-3.426 1.914-4.674.197-.153.405-.298.613-.442.184-.128.368-.256.545-.39l.086-.065c.566-.429 1.161-.88 1.234-1.586.105-1.024-.537-1.208-1.518-1.018-.031.006-.117.036-.234.075-.501.171-1.569.536-1.367.1.076-.164.354-.294.705-.392.908-.089 1.99-.192 2.302-.13 3.358.663 4.666 4.852 5.013 7.513.04.301.071.603.098.906h.616c-.043-.71-.099-1.42-.231-2.124-.495-2.636-2.043-6.508-5.438-6.935-.125-.016-.586-.019-1.144.01a2.228 2.228 0 0 0-.873-.232Z" clip-rule="evenodd"/>
    </symbol>


  </defs>
</svg>